<?xml version="1.0" standalone="no"?>
<svg xmlns="http://www.w3.org/2000/svg" viewBox="0 0 185.4 26.265" width="185.4" height="26.265"><path fill="#1A46C2" fill-rule="nonzero" d="M5.16 19.82L5.16 19.82Q3.48 19.82 2.36 19.10Q1.25 18.38 0.67 17.11Q0.10 15.84 0 14.16L0 14.16L2.40 13.51Q2.47 14.54 2.72 15.50Q2.98 16.46 3.55 17.08Q4.13 17.69 5.16 17.69L5.16 17.69Q6.22 17.69 6.76 17.10Q7.30 16.51 7.30 15.41L7.30 15.41Q7.30 14.09 6.70 13.28Q6.10 12.48 5.18 11.66L5.18 11.66L1.92 8.78Q0.96 7.94 0.50 6.95Q0.05 5.95 0.05 4.49L0.05 4.49Q0.05 2.35 1.27 1.18Q2.50 0 4.61 0L4.61 0Q5.76 0 6.64 0.30Q7.51 0.60 8.10 1.22Q8.69 1.85 9.04 2.80Q9.38 3.74 9.50 5.02L9.50 5.02L7.20 5.64Q7.13 4.68 6.91 3.88Q6.70 3.07 6.16 2.58Q5.62 2.09 4.61 2.09L4.61 2.09Q3.60 2.09 3.04 2.63Q2.47 3.17 2.47 4.22L2.47 4.22Q2.47 5.11 2.77 5.69Q3.07 6.26 3.74 6.86L3.74 6.86L7.03 9.74Q8.14 10.70 8.98 12.04Q9.82 13.37 9.82 15.19L9.82 15.19Q9.82 16.63 9.22 17.68Q8.62 18.72 7.57 19.27Q6.53 19.82 5.16 19.82ZM15.41 19.80L15.41 19.80Q14.33 19.80 13.67 19.39Q13.01 18.98 12.71 18.24Q12.41 17.50 12.41 16.49L12.41 16.49L12.41 7.44L10.94 7.44L10.94 5.74L12.41 5.74L12.41 1.68L14.98 1.68L14.98 5.74L17.21 5.74L17.21 7.44L14.98 7.44L14.98 16.32Q14.98 17.14 15.24 17.48Q15.50 17.83 16.25 17.83L16.25 17.83Q16.44 17.83 16.69 17.81Q16.94 17.78 17.18 17.76L17.18 17.76L17.18 19.66Q16.70 19.73 16.30 19.76Q15.89 19.80 15.41 19.80ZM21.74 19.61L19.18 19.61L19.18 5.74L21.74 5.74L21.74 7.70Q22.51 6.43 23.28 6Q24.05 5.57 24.82 5.57L24.82 5.57Q24.91 5.57 25.00 5.57Q25.08 5.57 25.22 5.59L25.22 5.59L25.22 8.42Q24.94 8.30 24.56 8.22Q24.19 8.14 23.81 8.14L23.81 8.14Q23.21 8.14 22.72 8.41Q22.22 8.69 21.74 9.48L21.74 9.48L21.74 19.61ZM30.65 19.80L30.65 19.80Q29.02 19.80 28.13 19.16Q27.24 18.53 26.89 17.29Q26.54 16.06 26.54 14.26L26.54 14.26L26.54 11.09Q26.54 9.24 26.90 8.02Q27.26 6.79 28.16 6.17Q29.06 5.54 30.65 5.54L30.65 5.54Q32.40 5.54 33.23 6.26Q34.06 6.98 34.32 8.34Q34.58 9.70 34.58 11.59L34.58 11.59L34.58 12.72L29.11 12.72L29.11 15.50Q29.11 16.34 29.27 16.87Q29.42 17.40 29.77 17.65Q30.12 17.90 30.67 17.90L30.67 17.90Q31.25 17.90 31.55 17.63Q31.85 17.35 31.96 16.84Q32.06 16.32 32.06 15.62L32.06 15.62L32.06 14.78L34.56 14.78L34.56 15.31Q34.56 17.40 33.67 18.60Q32.78 19.80 30.65 19.80ZM29.11 10.58L29.11 11.33L32.06 11.33L32.06 10.08Q32.06 9.22 31.97 8.63Q31.87 8.04 31.57 7.74Q31.27 7.44 30.62 7.44L30.62 7.44Q30 7.44 29.68 7.73Q29.35 8.02 29.23 8.70Q29.11 9.38 29.11 10.58L29.11 10.58ZM39.41 19.80L39.41 19.80Q38.59 19.80 37.97 19.33Q37.34 18.86 36.98 18.13Q36.62 17.40 36.62 16.58L36.62 16.58Q36.62 15.29 37.06 14.40Q37.49 13.51 38.24 12.90Q39 12.29 40.00 11.83Q40.99 11.38 42.10 10.94L42.10 10.94L42.10 9.96Q42.10 9.12 42 8.57Q41.90 8.02 41.60 7.74Q41.30 7.46 40.70 7.46L40.70 7.46Q40.18 7.46 39.85 7.70Q39.53 7.94 39.38 8.39Q39.24 8.83 39.24 9.43L39.24 9.43L39.24 10.13L36.70 10.03Q36.74 7.73 37.75 6.64Q38.76 5.54 40.87 5.54L40.87 5.54Q42.94 5.54 43.80 6.67Q44.66 7.80 44.66 9.94L44.66 9.94L44.66 16.27Q44.66 16.92 44.70 17.52Q44.74 18.12 44.80 18.64Q44.86 19.15 44.90 19.61L44.90 19.61L42.55 19.61Q42.48 19.22 42.37 18.64Q42.26 18.05 42.22 17.57L42.22 17.57Q41.98 18.38 41.29 19.09Q40.61 19.80 39.41 19.80ZM40.42 17.59L40.42 17.59Q40.80 17.59 41.14 17.38Q41.47 17.16 41.74 16.88Q42 16.61 42.10 16.44L42.10 16.44L42.10 12.50Q41.50 12.84 40.97 13.18Q40.44 13.51 40.04 13.88Q39.65 14.26 39.42 14.72Q39.19 15.19 39.19 15.79L39.19 15.79Q39.19 16.63 39.50 17.11Q39.82 17.59 40.42 17.59ZM49.51 19.61L47.14 19.61L47.14 5.74L49.51 5.74L49.51 7.06Q50.21 6.26 51.05 5.88Q51.89 5.50 52.78 5.50L52.78 5.50Q53.54 5.50 54.16 5.88Q54.77 6.26 55.03 7.25L55.03 7.25Q55.78 6.34 56.65 5.92Q57.53 5.50 58.49 5.50L58.49 5.50Q59.16 5.50 59.71 5.82Q60.26 6.14 60.60 6.85Q60.94 7.56 60.94 8.71L60.94 8.71L60.94 19.61L58.58 19.61L58.58 8.88Q58.58 7.87 58.26 7.52Q57.94 7.18 57.38 7.18L57.38 7.18Q56.86 7.18 56.28 7.48Q55.70 7.78 55.22 8.30L55.22 8.30Q55.22 8.40 55.22 8.50Q55.22 8.59 55.22 8.71L55.22 8.71L55.22 19.61L52.87 19.61L52.87 8.88Q52.87 7.87 52.55 7.52Q52.22 7.18 51.67 7.18L51.67 7.18Q51.14 7.18 50.58 7.48Q50.02 7.78 49.51 8.30L49.51 8.30L49.51 19.61ZM66.38 19.61L63.67 19.61L63.67 0.17L68.50 0.17Q70.25 0.17 71.29 0.80Q72.34 1.44 72.82 2.64Q73.30 3.84 73.30 5.54L73.30 5.54Q73.30 7.08 72.76 8.21Q72.22 9.34 71.16 9.95Q70.10 10.56 68.52 10.56L68.52 10.56L66.38 10.56L66.38 19.61ZM66.38 2.11L66.38 8.62L67.63 8.62Q68.81 8.62 69.48 8.35Q70.15 8.09 70.44 7.43Q70.73 6.77 70.73 5.57L70.73 5.57Q70.73 4.18 70.52 3.43Q70.32 2.69 69.67 2.40Q69.02 2.11 67.66 2.11L67.66 2.11L66.38 2.11ZM77.47 19.80L77.47 19.80Q76.66 19.80 76.03 19.33Q75.41 18.86 75.05 18.13Q74.69 17.40 74.69 16.58L74.69 16.58Q74.69 15.29 75.12 14.40Q75.55 13.51 76.31 12.90Q77.06 12.29 78.06 11.83Q79.06 11.38 80.16 10.94L80.16 10.94L80.16 9.96Q80.16 9.12 80.06 8.57Q79.97 8.02 79.67 7.74Q79.37 7.46 78.77 7.46L78.77 7.46Q78.24 7.46 77.92 7.70Q77.59 7.94 77.45 8.39Q77.30 8.83 77.30 9.43L77.30 9.43L77.30 10.13L74.76 10.03Q74.81 7.73 75.82 6.64Q76.82 5.54 78.94 5.54L78.94 5.54Q81 5.54 81.86 6.67Q82.73 7.80 82.73 9.94L82.73 9.94L82.73 16.27Q82.73 16.92 82.76 17.52Q82.80 18.12 82.86 18.64Q82.92 19.15 82.97 19.61L82.97 19.61L80.62 19.61Q80.54 19.22 80.44 18.64Q80.33 18.05 80.28 17.57L80.28 17.57Q80.04 18.38 79.36 19.09Q78.67 19.80 77.47 19.80ZM78.48 17.59L78.48 17.59Q78.86 17.59 79.20 17.38Q79.54 17.16 79.80 16.88Q80.06 16.61 80.16 16.44L80.16 16.44L80.16 12.50Q79.56 12.84 79.03 13.18Q78.50 13.51 78.11 13.88Q77.71 14.26 77.48 14.72Q77.26 15.19 77.26 15.79L77.26 15.79Q77.26 16.63 77.57 17.11Q77.88 17.59 78.48 17.59ZM87.84 19.61L85.27 19.61L85.27 5.74L87.84 5.74L87.84 7.70Q88.61 6.43 89.38 6Q90.14 5.57 90.91 5.57L90.91 5.57Q91.01 5.57 91.09 5.57Q91.18 5.57 91.32 5.59L91.32 5.59L91.32 8.42Q91.03 8.30 90.66 8.22Q90.29 8.14 89.90 8.14L89.90 8.14Q89.30 8.14 88.81 8.41Q88.32 8.69 87.84 9.48L87.84 9.48L87.84 19.61ZM96.60 19.80L96.60 19.80Q95.52 19.80 94.86 19.39Q94.20 18.98 93.90 18.24Q93.60 17.50 93.60 16.49L93.60 16.49L93.60 7.44L92.14 7.44L92.14 5.74L93.60 5.74L93.60 1.68L96.17 1.68L96.17 5.74L98.40 5.74L98.40 7.44L96.17 7.44L96.17 16.32Q96.17 17.14 96.43 17.48Q96.70 17.83 97.44 17.83L97.44 17.83Q97.63 17.83 97.88 17.81Q98.14 17.78 98.38 17.76L98.38 17.76L98.38 19.66Q97.90 19.73 97.49 19.76Q97.08 19.80 96.60 19.80ZM103.03 19.61L100.46 19.61L100.46 5.74L103.03 5.74L103.03 19.61ZM103.03 3.67L100.46 3.67L100.46 0.98L103.03 0.98L103.03 3.67ZM109.58 19.80L109.58 19.80Q107.88 19.80 107.00 19.12Q106.13 18.43 105.83 17.18Q105.53 15.94 105.53 14.28L105.53 14.28L105.53 11.09Q105.53 9.34 105.84 8.10Q106.15 6.86 107.03 6.20Q107.90 5.54 109.58 5.54L109.58 5.54Q111.10 5.54 111.92 6.04Q112.75 6.53 113.06 7.50Q113.38 8.47 113.38 9.91L113.38 9.91L113.38 10.73L111.05 10.73L111.05 9.89Q111.05 8.98 110.93 8.45Q110.81 7.92 110.50 7.68Q110.18 7.44 109.61 7.44L109.61 7.44Q108.98 7.44 108.65 7.73Q108.31 8.02 108.20 8.70Q108.10 9.38 108.10 10.56L108.10 10.56L108.10 14.93Q108.10 16.70 108.43 17.30Q108.77 17.90 109.63 17.90L109.63 17.90Q110.28 17.90 110.58 17.60Q110.88 17.30 110.96 16.75Q111.05 16.20 111.05 15.50L111.05 15.50L111.05 14.38L113.38 14.38L113.38 15.34Q113.38 16.73 113.05 17.74Q112.73 18.74 111.90 19.27Q111.07 19.80 109.58 19.80ZM118.46 19.61L115.90 19.61L115.90 0.17L118.46 0.17L118.46 19.61ZM124.99 19.80L124.99 19.80Q123.36 19.80 122.47 19.16Q121.58 18.53 121.24 17.29Q120.89 16.06 120.89 14.26L120.89 14.26L120.89 11.09Q120.89 9.24 121.25 8.02Q121.61 6.79 122.51 6.17Q123.41 5.54 124.99 5.54L124.99 5.54Q126.74 5.54 127.57 6.26Q128.40 6.98 128.66 8.34Q128.93 9.70 128.93 11.59L128.93 11.59L128.93 12.72L123.46 12.72L123.46 15.50Q123.46 16.34 123.61 16.87Q123.77 17.40 124.12 17.65Q124.46 17.90 125.02 17.90L125.02 17.90Q125.59 17.90 125.89 17.63Q126.19 17.35 126.30 16.84Q126.41 16.32 126.41 15.62L126.41 15.62L126.41 14.78L128.90 14.78L128.90 15.31Q128.90 17.40 128.02 18.60Q127.13 19.80 124.99 19.80ZM123.46 10.58L123.46 11.33L126.41 11.33L126.41 10.08Q126.41 9.22 126.31 8.63Q126.22 8.04 125.92 7.74Q125.62 7.44 124.97 7.44L124.97 7.44Q124.34 7.44 124.02 7.73Q123.70 8.02 123.58 8.70Q123.46 9.38 123.46 10.58L123.46 10.58ZM134.47 19.80L134.47 19.80Q132.77 19.80 131.74 18.73Q130.70 17.66 130.56 15.91L130.56 15.91L132.70 15.26Q132.89 16.58 133.34 17.24Q133.80 17.90 134.69 17.90L134.69 17.90Q135.38 17.90 135.74 17.51Q136.10 17.11 136.10 16.44L136.10 16.44Q136.10 15.84 135.84 15.36Q135.58 14.88 134.98 14.38L134.98 14.38L132.60 12.34Q131.88 11.71 131.39 10.94Q130.90 10.18 130.90 8.95L130.90 8.95Q130.90 7.85 131.34 7.09Q131.78 6.34 132.59 5.94Q133.39 5.54 134.47 5.54L134.47 5.54Q136.13 5.54 137.00 6.61Q137.88 7.68 138 9.19L138 9.19L136.27 9.84Q136.18 9.12 135.98 8.58Q135.79 8.04 135.46 7.74Q135.12 7.44 134.57 7.44L134.57 7.44Q133.94 7.44 133.57 7.86Q133.20 8.28 133.20 8.86L133.20 8.86Q133.20 9.22 133.36 9.56Q133.51 9.91 133.90 10.25L133.90 10.25L136.34 12.50Q136.85 12.96 137.29 13.49Q137.74 14.02 138.02 14.69Q138.31 15.36 138.31 16.25L138.31 16.25Q138.31 17.42 137.83 18.22Q137.35 19.01 136.49 19.40Q135.62 19.80 134.47 19.80Z" transform="translate(0, 3.221)"></path><line x1="147.312" y1="2%" x2="147.312" y2="98%" stroke="#1A46C2" stroke-linecap="round"></line><g fill="#ceff1a" color="#ceff1a" transform="translate(156.312 0) scale(0.5471699)"><svg width="53.0" height="48.0" x="0.0" y="0.0" viewBox="0 0 53 48"><path fill="currentColor" fill-rule="evenodd" d="M14.18 0L0 8.432v16.864l14.18 8.435L24 27.846v11.72L38.181 48l14.181-8.434V22.704l-14.181-8.433-9.818 5.883V8.432L14.18 0zM4.364 22.814V10.915l9.817-5.84L24 10.915v11.853l-9.819 5.885-9.817-5.839zm23.999 14.27V25.23l9.818-5.884 9.818 5.837v11.9L38.18 42.92l-9.818-5.837z"></path></svg></g></svg>